<svg xmlns="http://www.w3.org/2000/svg" viewBox="0 0 300 420" width="300" height="420">
  <defs>
    <linearGradient id="g1" x1="0" y1="0" x2="0" y2="1">
      <stop offset="0%" stop-color="#1e3a2f"/>
      <stop offset="100%" stop-color="#0f201b"/>
    </linearGradient>
  </defs>
  <rect width="300" height="420" rx="8" fill="url(#g1)"/>
  <circle cx="150" cy="130" r="45" fill="#fcd34d" opacity="0.9"/>
  <!-- stylized orchard trees -->
  <path d="M60 380 Q90 240 120 380 Z" fill="#142c22"/>
  <path d="M120 380 Q150 210 180 380 Z" fill="#0d1f18"/>
  <path d="M180 380 Q210 230 240 380 Z" fill="#163327"/>
  <path d="M20 380 Q60 270 100 380 Z" fill="#0a1813"/>
  <path d="M200 380 Q240 260 280 380 Z" fill="#0c1d16"/>
  <!-- fruit dots -->
  <circle cx="110" cy="270" r="4" fill="#ef4444"/>
  <circle cx="130" cy="250" r="4" fill="#ef4444"/>
  <circle cx="170" cy="245" r="4" fill="#ef4444"/>
  <circle cx="190" cy="265" r="4" fill="#ef4444"/>
  <circle cx="75" cy="300" r="3.5" fill="#ef4444"/>
  <circle cx="225" cy="290" r="3.5" fill="#ef4444"/>
  <text x="150" y="60" text-anchor="middle" font-family="serif" font-size="20" font-weight="bold" fill="#f8fafc" letter-spacing="1.5">THE NIGHT ORCHARD</text>
  <text x="150" y="82" text-anchor="middle" font-family="sans-serif" font-size="11" fill="#94a3b8" letter-spacing="2">MARA VOSS</text>
</svg>